<svg xmlns="http://www.w3.org/2000/svg" xmlns:xlink="http://www.w3.org/1999/xlink" version="1.1" width="841" height="595.0001" viewBox="0 0 841 595.0001">
<path transform="matrix(1,0,0,-1,0,595.0001)" d="M420.9449 341.2655C456.8743 341.2655 486.0011 312.1384 486.0011 276.209 486.0011 240.2796 456.8743 211.1525 420.9449 211.1525 385.0155 211.1525 355.8881 240.2796 355.8881 276.209 355.8881 312.1384 385.0155 341.2655 420.9449 341.2655" fill="#030406" fill-rule="evenodd"/>
<path transform="matrix(1,0,0,-1,0,595.0001)" d="M420.9449 332.7321C452.1611 332.7321 477.468 307.4255 477.468 276.209 477.468 244.9925 452.1611 219.6859 420.9449 219.6859 389.7281 219.6859 364.4218 244.9925 364.4218 276.209 364.4218 307.4255 389.7281 332.7321 420.9449 332.7321ZM420.9449 326.734C393.0401 326.734 370.4199 304.1135 370.4199 276.209 370.4199 248.3045 393.0401 225.684 420.9449 225.684 448.8491 225.684 471.4699 248.3045 471.4699 276.209 471.4699 304.1135 448.8491 326.734 420.9449 326.734" fill="#fff200" fill-rule="evenodd"/>
<path transform="matrix(1,0,0,-1,0,595.0001)" d="M436.3648 278.3049 443.0979 287.6204 419.953 287.3999 439.2391 319.1479 398.7916 278.0399C411.3967 278.1904 423.7007 278.3265 436.3648 278.3049" fill="#fff200" fill-rule="evenodd"/>
<path transform="matrix(1,0,0,-1,0,595.0001)" d="M405.5253 274.1128 398.7916 264.7973 421.9364 265.0178 402.6504 233.2701 443.0979 274.3778C430.4934 274.227 418.1888 274.0912 405.5253 274.1128" fill="#fff200" fill-rule="evenodd"/>
<path transform="matrix(1,0,0,-1,0,595.0001)" d="M251.9405 224.1337 180.3178 244.4717 191.0075 282.1173 204.8105 278.1975 199.0273 257.8303 213.1203 253.8283 218.3009 272.0721 232.0072 268.1799 226.8266 249.9364 256.847 241.412ZM227.9132 319.8762 237.3174 313.1887C237.6652 314.2548 237.8682 315.4646 237.928 316.8176 237.9869 318.1711 237.8789 319.5201 237.6043 320.8646 237.3293 322.2096 236.8811 323.513 236.2603 324.7756 235.6396 326.0375 234.7951 327.1306 233.7282 328.0535ZM290.2133 303.7706C287.0203 305.6301 283.5918 307.042 279.9275 308.0064 276.2629 308.9704 272.6263 309.4841 269.0178 309.5461 265.4093 309.6088 261.9437 309.1796 258.6212 308.2589 255.299 307.338 252.4774 305.9385 250.1561 304.0591L276.8961 285.0437 266.546 270.4881 205.8687 313.6357 235.3504 355.0958C238.3807 352.777 240.9579 350.2259 243.0831 347.4422 245.2082 344.6592 246.9192 341.8418 248.2157 338.9907 249.5129 336.1394 250.403 333.3518 250.8868 330.6268 251.3713 327.9022 251.4869 325.4391 251.2355 323.238 254.5756 325.0494 258.3867 326.3406 262.6702 327.1116 266.9533 327.8826 271.3737 328.1255 275.9309 327.8395 280.4888 327.5535 284.9834 326.7173 289.4151 325.3311 293.8465 323.9442 297.834 321.9911 301.3775 319.4711ZM340.4407 343.6186C334.7719 340.1623 328.7761 338.0323 322.4523 337.229 316.1282 336.4257 309.962 336.6995 303.9537 338.0496 297.9454 339.4001 292.3588 341.6862 287.1947 344.9089 282.03 348.1313 277.7995 352.0599 274.5048 356.6934L283.0099 362.7411C281.0117 363.1266 278.9189 363.7318 276.732 364.5567 274.5442 365.3819 272.3927 366.4165 270.2767 367.6615 268.1597 368.9062 266.1058 370.3802 264.115 372.0835 262.1237 373.7871 260.3064 375.7368 258.6626 377.9334L297.9964 405.9037 306.2534 394.2916 283.9292 378.4167C284.7747 377.4583 285.8888 376.6703 287.2721 376.0534 288.6545 375.4361 290.1351 374.9703 291.7134 374.6557 293.2909 374.3413 294.8944 374.2503 296.5241 374.383 298.154 374.5159 299.6184 374.8802 300.9183 375.476L312.1214 383.4428 319.6809 372.812 299.4829 358.4489C301.4235 356.874 303.571 355.6718 305.9254 354.8426 308.2796 354.0135 310.7812 353.5551 313.4288 353.4676 316.0766 353.3805 318.8186 353.7091 321.6543 354.4537 324.4907 355.1981 327.3216 356.4111 330.1481 358.0923ZM385.7698 359.5484 382.4257 371.3244 361.8658 365.4862C361.9451 363.492 362.1716 361.4703 362.5449 359.4206 362.9186 357.3709 363.3562 355.3393 363.8582 353.3264L347.063 348.5571C345.583 353.7694 344.7094 359.2933 344.4435 365.1284 344.1773 370.9638 344.4783 376.8211 345.3469 382.7007 346.216 388.5797 347.6446 394.323 349.6343 399.9294 351.6231 405.536 354.1606 410.7419 357.247 415.5474 360.3331 420.3527 363.9606 424.5985 368.1286 428.2858 372.2973 431.9728 376.9557 434.791 382.1049 436.7398L402.6623 364.3449ZM372.0379 407.9081C369.3487 404.1541 367.1521 399.7057 365.4488 394.5631 363.7449 389.4199 362.6033 383.9499 362.0242 378.1525L379.1098 383.004ZM455.0352 359.2125C455.3252 363.0866 455.0885 367.0614 454.3257 371.1373 453.5623 375.2127 452.3666 379.0735 450.7396 382.7191 449.1128 386.365 447.0866 389.6569 444.6612 392.595 442.2365 395.5334 439.4781 397.8394 436.3869 399.5133L431.6426 362.1852 413.9246 364.4371 423.311 438.2972 441.0295 436.0456 438.4738 415.938C439.6683 415.7861 441.0507 416.1835 442.6209 417.1303 444.191 418.0771 445.7934 419.4079 447.4273 421.1218 449.0609 422.8362 450.6435 424.8099 452.1745 427.0428 453.7063 429.2759 455.0012 431.6397 456.0605 434.1353L473.7784 431.8835C471.234 425.1263 468.3025 419.6996 464.9834 415.6036 461.6643 411.5072 457.8661 408.5507 453.5892 406.7342 457.6654 403.7888 461.0934 400.2508 463.873 396.1216 466.6521 391.9921 468.834 387.6687 470.4177 383.152 472.0017 378.6347 473.042 374.0856 473.5383 369.5046 474.0352 364.9235 474.0389 360.7084 473.55 356.8592ZM479.1912 352.7541 519.5911 386.2885 499.6755 396.4895 522.1534 414.4014 540.6401 404.9325 522.9156 391.2375 541.7595 381.5855 498.2136 343.0106ZM521.1298 329.0814 569.8777 385.3576 583.3777 373.6636 534.6298 317.3871ZM604.2214 354.115 637.7165 307.0123C633.3004 303.8723 628.3877 301.1998 622.9786 298.995 617.5689 296.79 611.9354 295.1028 606.0776 293.9332 600.2195 292.7633 594.3158 292.1771 588.3664 292.1743 582.4176 292.1712 576.6625 292.8192 571.1012 294.1177 565.5402 295.4166 560.3241 297.4124 555.4545 300.1054 550.5843 302.7986 546.3689 306.2449 542.8086 310.4436ZM600.554 329.8368 576.0213 312.3918C578.4849 311.3521 581.1619 310.5884 584.0532 310.1003 586.9451 309.6119 589.9292 309.4557 593.0053 309.632 596.0812 309.8083 599.1849 310.2919 602.3166 311.0822 605.4486 311.8725 608.5052 312.9996 611.4864 314.4631ZM587.8063 213.8162C586.7731 220.3747 587.0911 226.7297 588.7607 232.882 590.43 239.0343 593.0351 244.6302 596.5744 249.6691 600.114 254.7082 604.3584 259.0007 609.3074 262.5454 614.2561 266.0907 619.5008 268.5025 625.0408 269.7812L627.3879 259.6127C628.5059 261.3124 629.8637 263.016 631.4601 264.7236 633.0572 266.4309 634.8348 268.0251 636.7927 269.5068 638.7506 270.9887 640.8967 272.3253 643.2301 273.5158 645.5645 274.7069 648.0604 275.6435 650.7176 276.3252L661.572 229.2968 647.6882 226.0925 641.5277 252.7841C640.319 252.3679 639.1658 251.6386 638.0683 250.5951 636.9698 249.5523 635.9746 248.3617 635.082 247.0229 634.1899 245.6841 633.494 244.2365 632.9951 242.6794 632.4965 241.1223 632.2745 239.6296 632.3298 238.2007L635.4213 224.8058 622.711 221.8723 617.1369 246.022C614.9407 244.8286 613.0106 243.3019 611.346 241.4418 609.6815 239.5811 608.3036 237.4441 607.2131 235.0298 606.1226 232.6156 605.3808 229.9555 604.9877 227.05 604.5939 224.1445 604.6356 221.0647 605.1115 217.8105Z" fill="#030406" fill-rule="evenodd"/>
<path transform="matrix(1,0,0,-1,0,595.0001)" d="M185.0698 157.4311V194.7249H210.5524C210.3508 192.8483 209.9823 191.0724 209.4466 189.3971 208.9103 187.7219 208.2487 186.1804 207.4612 184.7733 206.6734 183.3659 205.7771 182.126 204.7723 181.0539 203.7671 179.9816 202.7115 179.1105 201.6057 178.4404 204.0851 177.1336 206.1879 175.6423 207.9133 173.967 209.6391 172.2917 211.038 170.5241 212.1103 168.6645 213.1824 166.8047 213.9613 164.9117 214.4475 162.985 214.933 161.0583 215.1763 159.207 215.1763 157.4311ZM203.6665 165.7743C203.3649 166.6791 202.8623 167.6007 202.1584 168.539 201.4549 169.4769 200.651 170.3398 199.7459 171.1273 198.841 171.9147 197.886 172.5596 196.8812 173.0622 195.8757 173.5651 194.9207 173.8497 194.0165 173.9169V165.7743ZM194.0165 187.5878V181.5565C194.5191 181.5565 195.0715 181.766 195.6747 182.1847 196.278 182.6036 196.8474 183.1229 197.3835 183.7429 197.9201 184.3628 198.364 185.0162 198.7155 185.703 199.0672 186.3899 199.2436 187.018 199.2436 187.5878ZM227.6915 187.5376V181.7575C228.2272 181.925 228.7803 182.1932 229.3498 182.5617 229.9192 182.9302 230.4388 183.3659 230.908 183.8684 231.3768 184.371 231.7791 184.9323 232.1144 185.5522 232.4492 186.1722 232.6501 186.8338 232.7173 187.5376ZM239.2013 157.4311C239.0338 159.2739 238.6145 161.0836 237.9447 162.8592 237.2746 164.6351 236.4282 166.2687 235.4066 167.7597 234.3844 169.2507 233.2035 170.5408 231.863 171.6299 230.5225 172.7189 229.1321 173.4644 227.6915 173.8664V157.4311H218.7448V194.7249H244.2271C244.1599 192.8149 243.8668 191.0222 243.3475 189.347 242.8279 187.6717 242.1746 186.1554 241.3877 184.7982 240.6002 183.4413 239.7206 182.2686 238.7489 181.2801 237.7772 180.2914 236.8052 179.5292 235.8334 178.9931 237.5425 178.1555 239.1761 176.9743 240.7343 175.4498 242.2922 173.9251 243.6744 172.1911 244.8808 170.2477 246.0866 168.3043 247.0501 166.2267 247.7704 164.0154 248.491 161.8038 248.8513 159.609 248.8513 157.4311ZM270.8152 157.4311V163.563H260.1096C259.8749 162.5913 259.7077 161.5861 259.6071 160.5472 259.5064 159.5086 259.4395 158.4697 259.4064 157.4311H250.6606C250.6606 160.1453 250.996 162.9264 251.6661 165.7743 252.3362 168.6226 253.2827 171.4037 254.5055 174.1178 255.7287 176.832 257.203 179.4036 258.9284 181.8329 260.6545 184.2622 262.5894 186.4233 264.7338 188.3166 266.8785 190.2098 269.2069 191.7595 271.7201 192.9657 274.2333 194.1721 276.8632 194.8924 279.6109 195.1268V157.4311ZM270.8152 182.6118C269.0062 181.171 267.3388 179.3282 265.8144 177.0831 264.2899 174.8381 262.9913 172.3586 261.9193 169.6445H270.8152ZM303.6861 157.4311C303.6861 160.1787 303.4769 162.7002 303.0576 164.9954 302.639 167.2906 302.0023 169.4435 301.1477 171.4538 300.2936 173.4644 299.238 175.3577 297.9814 177.1336 296.7248 178.9092 295.259 180.6517 293.5837 182.3607V157.4311H284.8881V194.7249H293.8348C296.4149 192.9155 298.6934 190.8213 300.6706 188.4421 302.6475 186.0633 304.1549 183.7678 305.1938 181.5565V194.7249H312.9846V157.4311ZM318.3117 194.7249H347.2622C347.2622 192.0107 346.9275 189.2296 346.2574 186.3816 345.587 183.5334 344.6405 180.7438 343.4173 178.0129 342.1945 175.2823 340.7202 172.7022 338.9941 170.2729 337.269 167.8436 335.3338 165.6822 333.1894 163.7892 331.0447 161.896 328.7163 160.3463 326.2031 159.1401 323.6902 157.9337 321.0593 157.2134 318.3117 156.9787ZM327.1581 186.1804V171.102C328.297 171.8059 329.3864 172.677 330.4247 173.7156 331.4636 174.7545 332.3937 175.9272 333.2146 177.234 334.0355 178.5407 334.7391 179.9481 335.3253 181.4559 335.9115 182.9636 336.3389 184.5386 336.6071 186.1804ZM363.6476 157.4311C363.6476 160.1453 363.9745 162.9264 364.6276 165.7743 365.2809 168.6226 366.2028 171.4037 367.3922 174.1178 368.5819 176.832 370.014 179.4036 371.6892 181.8329 373.3651 184.2622 375.241 186.4233 377.3186 188.3166 379.3961 190.2098 381.6493 191.7595 384.0789 192.9657 386.5082 194.1721 389.0631 194.8924 391.7438 195.1268V185.5774C389.4653 185.1752 387.3793 184.3628 385.4863 183.1397 383.5928 181.9168 381.9178 180.4255 380.4602 178.6663 379.0023 176.9074 377.771 174.9555 376.7658 172.8111 375.7603 170.6666 375.0233 168.4551 374.5545 166.1766H391.7438V157.4311ZM396.6693 157.4311V194.7249H424.1117V157.4311ZM415.266 186.7334H405.5652V165.7743H415.266ZM448.2369 157.4311C448.2369 160.1787 448.0277 162.7002 447.609 164.9954 447.1897 167.2906 446.5534 169.4435 445.699 171.4538 444.8443 173.4644 443.7887 175.3577 442.5327 177.1336 441.2761 178.9092 439.8097 180.6517 438.1345 182.3607V157.4311H429.4395V194.7249H438.3862C440.9663 192.9155 443.2448 190.8213 445.2214 188.4421 447.1982 186.0633 448.7063 183.7678 449.7452 181.5565V194.7249H457.5353V157.4311ZM481.6604 157.4311C481.6604 160.1787 481.4512 162.7002 481.0326 164.9954 480.6133 167.2906 479.9767 169.4435 479.1226 171.4538 478.2679 173.4644 477.2126 175.3577 475.9563 177.1336 474.6997 178.9092 473.2333 180.6517 471.558 182.3607V157.4311H462.8631V194.7249H471.8098C474.3899 192.9155 476.6681 190.8213 478.6449 188.4421 480.6218 186.0633 482.1299 183.7678 483.1688 181.5565V194.7249H490.9589V157.4311ZM517.9493 156.9787C514.6322 157.2134 511.566 158.0845 508.7511 159.5923 505.9366 161.1003 503.4988 163.0018 501.4383 165.297 499.3775 167.5922 497.7609 170.1471 496.5883 172.9619 495.4156 175.7764 494.8291 178.6079 494.8291 181.4559H500.0562C499.3526 182.1932 498.6743 183.0475 498.0209 184.0192 497.3675 184.991 496.7892 186.0381 496.2864 187.1606 495.7841 188.2831 495.3733 189.481 495.0553 190.7544 494.7367 192.0274 494.5612 193.3512 494.5275 194.7249H518.703V187.5878H504.9816C505.0485 186.9511 505.2747 186.3062 505.6603 185.6529 506.0458 184.9995 506.5149 184.3795 507.0677 183.793 507.6207 183.2066 508.2489 182.704 508.9527 182.2853 509.6563 181.8663 510.3595 181.59 511.0637 181.4559H517.9493V174.922H505.5347C505.8697 173.7156 506.3973 172.6016 507.1178 171.5797 507.8384 170.5575 508.7265 169.6445 509.7815 168.8403 510.8372 168.0361 512.0521 167.3745 513.4258 166.8552 514.7994 166.3356 516.3075 166.009 517.9493 165.875ZM521.8699 157.4311C521.8699 160.1453 522.1962 162.9264 522.8495 165.7743 523.5029 168.6226 524.4248 171.4037 525.6142 174.1178 526.8039 176.832 528.2359 179.4036 529.9115 181.8329 531.5871 184.2622 533.463 186.4233 535.5405 188.3166 537.618 190.2098 539.8716 191.7595 542.3009 192.9657 544.7302 194.1721 547.2848 194.8924 549.9658 195.1268V185.5774C547.6873 185.1752 545.6013 184.3628 543.7083 183.1397 541.8147 181.9168 540.1395 180.4255 538.6822 178.6663 537.2246 176.9074 535.9929 174.9555 534.9878 172.8111 533.9823 170.6666 533.2453 168.4551 532.7765 166.1766H549.9658V157.4311ZM561.1238 157.4311V185.8286H553.1321V194.7249H578.1121V185.8286H570.2207V157.4311ZM581.6801 157.4311V194.7249H590.6271V157.4311ZM595.9545 157.4311V194.7249H623.3973V157.4311ZM614.5512 186.7334H604.8505V165.7743H614.5512ZM647.5224 157.4311C647.5224 160.1787 647.3132 162.7002 646.8939 164.9954 646.475 167.2906 645.8386 169.4435 644.9839 171.4538 644.1299 173.4644 643.074 175.3577 641.8176 177.1336 640.561 178.9092 639.095 180.6517 637.42 182.3607V157.4311H628.7247V194.7249H637.6711C640.2515 192.9155 642.53 190.8213 644.5069 188.4421 646.4835 186.0633 647.9915 183.7678 649.0304 181.5565V194.7249H656.8209V157.4311Z" fill="#030406" fill-rule="evenodd"/>
<path transform="matrix(1,0,0,-1,0,595.0001)" d="M296.6893 238.055C296.6893 238.172 296.7304 238.2659 296.8098 238.3362 296.8889 238.4065 296.9853 238.4416 297.1023 238.4416H306.5678C306.6729 238.4416 306.7671 238.4096 306.849 238.3449 306.9312 238.2806 306.978 238.1839 306.9896 238.055V235.8666C306.9896 235.7612 306.9541 235.6617 306.8813 235.565 306.8082 235.4683 306.7024 235.4185 306.5678 235.4185H303.5356V225.7951C303.5356 225.6897 303.4979 225.5958 303.4213 225.5111 303.3454 225.426 303.2459 225.3821 303.1226 225.3821H300.5391C300.4393 225.3821 300.3454 225.4232 300.2579 225.5023 300.17 225.5814 300.1258 225.678 300.1258 225.7951V235.4185H297.1023C296.9853 235.4185 296.8889 235.4564 296.8098 235.5327 296.7304 235.6089 296.6893 235.7201 296.6893 235.8666ZM309.1255 238.0374C309.1255 238.1604 309.1572 238.2571 309.2219 238.3302 309.2865 238.4036 309.3829 238.4416 309.5118 238.4416H315.1894C315.7929 238.4416 316.3581 238.3274 316.8853 238.1017 317.4129 237.8764 317.8723 237.5717 318.2649 237.185 318.6575 236.7984 318.9679 236.3443 319.1939 235.8255 319.4195 235.3071 319.5309 234.7534 319.5309 234.1675 319.5309 233.7693 319.4782 233.3883 319.3693 233.028 319.261 232.6677 319.1088 232.3307 318.9155 232.0174 318.7222 231.7039 318.4934 231.4196 318.227 231.1648 317.9602 230.91 317.6677 230.6903 317.3511 230.5086L319.6188 226.2521C319.6596 226.1701 319.712 226.0735 319.7767 225.9621 319.8413 225.851 319.8733 225.754 319.8733 225.6721 319.8733 225.5783 319.8441 225.508 319.7823 225.4584 319.7208 225.4085 319.6361 225.3821 319.5309 225.3821H316.5075C316.408 225.3821 316.3201 225.4113 316.2407 225.47 316.1616 225.5287 316.1092 225.6077 316.0857 225.7072L313.9557 229.7237H312.5353V225.76C312.5353 225.508 312.4003 225.3821 312.1311 225.3821H309.5118C309.3948 225.3821 309.3009 225.4144 309.2306 225.4759 309.1603 225.5374 309.1255 225.631 309.1255 225.76ZM315.9978 234.1264C315.9978 234.3025 315.9658 234.4782 315.9009 234.654 315.8368 234.8297 315.7461 234.9907 315.6316 235.1373 315.5145 235.2838 315.3739 235.4068 315.2098 235.5063 315.0488 235.6058 314.8671 235.6705 314.6678 235.6997 314.5068 235.7113 314.3511 235.7232 314.2106 235.732 314.0671 235.7408 313.9121 235.7436 313.7423 235.7436H312.5353V232.5183H314.1437C314.2488 232.5183 314.3424 232.5212 314.4249 232.5271 314.5068 232.5331 314.5944 232.5419 314.6939 232.5535 314.8994 232.577 315.0836 232.6385 315.2446 232.7352 315.4088 232.8318 315.5465 232.9517 315.6579 233.0955 315.7665 233.2389 315.8512 233.4002 315.9096 233.5788 315.9686 233.7574 315.9978 233.9391 315.9978 234.1264ZM332.7746 231.8944C332.7746 231.2734 332.6956 230.6843 332.5377 230.125 332.3795 229.5655 332.1539 229.0439 331.8608 228.5606 331.5677 228.0773 331.2193 227.6379 330.8119 227.2453 330.4049 226.8527 329.9539 226.5188 329.4587 226.2433 328.9635 225.968 328.4274 225.7571 327.8531 225.6077 327.2791 225.4584 326.6847 225.3821 326.0693 225.3821H321.7365C321.6314 225.3821 321.5373 225.4056 321.4553 225.4524 321.3731 225.4992 321.3326 225.599 321.3326 225.7512V238.0286C321.3326 238.1516 321.3675 238.2511 321.4346 238.3274 321.5024 238.4036 321.6019 238.4416 321.7365 238.4416H326.0693C326.6847 238.4416 327.2791 238.3656 327.8506 238.2131 328.4218 238.0609 328.955 237.8441 329.4499 237.5629 329.9448 237.2817 330.3961 236.9446 330.8063 236.552 331.2162 236.1597 331.5677 235.7201 331.8576 235.2339 332.1476 234.7475 332.3733 234.2234 332.5346 233.6607 332.6956 233.0983 332.7746 232.5095 332.7746 231.8944ZM324.7424 235.2779V228.5283H325.4774C325.6121 228.5283 325.7442 228.5342 325.8729 228.543 325.999 228.5518 326.128 228.5606 326.2567 228.5722 326.6935 228.6074 327.1034 228.7128 327.4812 228.8917 327.8619 229.0703 328.1933 229.3047 328.477 229.5947 328.7582 229.8847 328.981 230.2245 329.142 230.6171 329.3033 231.0097 329.3824 231.4372 329.3824 231.9001 329.3824 232.3894 329.2914 232.8435 329.1072 233.2536 328.9224 233.6666 328.6738 234.0241 328.3571 234.3257 328.0436 234.6276 327.6746 234.8617 327.2496 235.029 326.8278 235.1959 326.3769 235.2779 325.8995 235.2779ZM512.1179 238.055C512.1295 238.1604 512.1706 238.2511 512.2409 238.3274 512.3112 238.4036 512.4107 238.4416 512.5397 238.4416H515.5804C515.7969 238.4416 515.9375 238.3302 516.0022 238.1077L518.3923 230.1219 520.8007 238.1077C520.8829 238.3302 521.0323 238.4416 521.2485 238.4416H524.2547C524.3598 238.4416 524.4568 238.4036 524.5413 238.3302 524.6266 238.2571 524.6734 238.1664 524.6853 238.055 524.8899 235.9896 525.1008 233.9419 525.3148 231.912 525.5289 229.8818 525.7366 227.8341 525.9419 225.7688V225.7248C525.9419 225.4963 525.8132 225.3821 525.5549 225.3821H523.0681C522.7982 225.3821 522.6576 225.5111 522.6463 225.7688L521.8818 232.5682 519.9041 225.7336C519.8924 225.6749 519.8513 225.6046 519.7785 225.5227 519.7051 225.4408 519.6317 225.3997 519.5614 225.3997H517.2503C517.18 225.3997 517.1066 225.4408 517.0275 225.5199 516.9484 225.599 516.9042 225.6693 516.8988 225.7336L514.921 232.5506 514.1565 225.7688C514.1446 225.5111 514.0015 225.3821 513.726 225.3821H511.2388C510.9868 225.3821 510.861 225.5111 510.861 225.7688ZM528.2972 238.0374C528.2972 238.1604 528.3295 238.2571 528.3938 238.3302 528.4585 238.4036 528.5548 238.4416 528.6841 238.4416H534.361C534.9645 238.4416 535.5298 238.3274 536.0576 238.1017 536.5845 237.8764 537.0446 237.5717 537.4372 237.185 537.8298 236.7984 538.1402 236.3443 538.3655 235.8255 538.5915 235.3071 538.7029 234.7534 538.7029 234.1675 538.7029 233.7693 538.6499 233.3883 538.5416 233.028 538.4333 232.6677 538.2811 232.3307 538.0875 232.0174 537.8939 231.7039 537.6657 231.4196 537.3989 231.1648 537.1325 230.91 536.8397 230.6903 536.523 230.5086L538.7905 226.2521C538.8316 226.1701 538.8843 226.0735 538.9486 225.9621 539.0133 225.851 539.0456 225.754 539.0456 225.6721 539.0456 225.5783 539.0164 225.508 538.9546 225.4584 538.8931 225.4085 538.808 225.3821 538.7029 225.3821H535.6794C535.5797 225.3821 535.4921 225.4113 535.413 225.47 535.3339 225.5287 535.2812 225.6077 535.2574 225.7072L533.128 229.7237H531.707V225.76C531.707 225.508 531.5726 225.3821 531.3027 225.3821H528.6841C528.5665 225.3821 528.4732 225.4144 528.4029 225.4759 528.3326 225.5374 528.2972 225.631 528.2972 225.76ZM535.1698 234.1264C535.1698 234.3025 535.1374 234.4782 535.0728 234.654 535.0088 234.8297 534.9178 234.9907 534.8032 235.1373 534.6865 235.2838 534.5459 235.4068 534.3814 235.5063 534.2204 235.6058 534.0387 235.6705 533.8395 235.6997 533.6785 235.7113 533.5231 235.7232 533.3825 235.732 533.2394 235.7408 533.0837 235.7436 532.914 235.7436H531.707V232.5183H533.3153C533.4211 232.5183 533.5143 232.5212 533.5965 232.5271 533.6785 232.5331 533.7663 232.5419 533.8658 232.5535 534.0711 232.577 534.2559 232.6385 534.4169 232.7352 534.5807 232.8318 534.7188 232.9517 534.8302 233.0955 534.9385 233.2389 535.0235 233.4002 535.0819 233.5788 535.1406 233.7574 535.1698 233.9391 535.1698 234.1264ZM540.6276 238.055C540.6276 238.1604 540.6625 238.2511 540.7296 238.3274 540.7974 238.4036 540.8909 238.4416 541.014 238.4416H543.6156C543.7035 238.4416 543.7967 238.4065 543.894 238.3362 543.9903 238.2659 544.0374 238.172 544.0374 238.055V233.2565C544.6757 234.0768 545.3028 234.8853 545.9182 235.6821 546.5333 236.4789 547.1572 237.2873 547.7899 238.1077 547.8542 238.2072 547.9393 238.2894 548.0419 238.3509 548.1442 238.4124 548.244 238.4416 548.3438 238.4416H551.6833C551.8239 238.4416 551.8942 238.4008 551.8942 238.3186 551.8942 238.2599 551.8619 238.1896 551.7972 238.1077L547.6581 232.6473 552.2369 225.7512C552.3012 225.6517 552.3333 225.5726 552.3333 225.5139 552.3333 225.426 552.2692 225.3821 552.1399 225.3821H548.8183C548.7182 225.3821 548.6219 225.4113 548.5252 225.47 548.4283 225.5287 548.3463 225.6077 548.2823 225.7072 547.9716 226.129 547.6904 226.5333 547.4356 226.9202 547.1804 227.3068 546.9316 227.6935 546.6915 228.0773 546.4514 228.4611 546.2082 228.8477 545.9618 229.2403 545.7161 229.6327 545.4465 230.046 545.1534 230.4794L544.0374 229.1964V225.7688C544.0374 225.5111 543.8968 225.3821 543.6156 225.3821H541.0227C540.7591 225.3821 540.6276 225.5111 540.6276 225.7688Z" fill="#030406" fill-rule="evenodd"/>
</svg>
