<svg xmlns="http://www.w3.org/2000/svg" xmlns:xlink="http://www.w3.org/1999/xlink" version="1.1" width="1080" height="1080" viewBox="0 0 1080 1080">
<defs>
<clipPath id="clip_0">
<path transform="matrix(1,0,0,-1,0,1080)" d="M0 1080H1080V0H0Z"/>
</clipPath>
</defs>
<g id="layer_1" data-name="Camada 1">
<g clip-path="url(#clip_0)">
<path transform="matrix(1,0,0,-1,948.7136,798.4579)" d="M0 0-341.11 590.82C-371.156 642.861-446.271 642.861-476.317 590.82L-817.427 0C-847.473-52.041-809.916-117.092-749.824-117.092H-67.603C-7.512-117.092 30.046-52.041 0 0"/>
<path transform="matrix(1,0,0,-1,883.3637,852.96536)" d="M0 0C-20.319 0-20.285 30.453 0 30.453 20.318 30.453 20.285 0 0 0M20.09 42.18-13.698 46.087-33.976 18.78-20.466-12.435 13.322-16.343 33.6 10.965Z" fill="#fed328"/>
<path transform="matrix(1,0,0,-1,197.0121,852.96536)" d="M0 0C-20.319 0-20.285 30.453 0 30.453 20.318 30.453 20.285 0 0 0M20.09 42.18-13.698 46.087-33.976 18.78-20.466-12.435 13.322-16.343 33.6 10.965Z" fill="#fed328"/>
<path transform="matrix(1,0,0,-1,540.1879,249.00098)" d="M0 0C-20.319 0-20.285 30.453 0 30.453 20.318 30.453 20.285 0 0 0M20.09 42.18-13.698 46.087-33.976 18.78-20.466-12.435 13.322-16.343 33.6 10.965Z" fill="#fed328"/>
<path transform="matrix(1,0,0,-1,465.9118,703.09976)" d="M0 0C-.119 2.25-.275 4.091-.468 5.512 2.434 4.193 5.072 3.536 7.443 3.536 8.389 3.536 9.274 3.681 10.097 3.97 10.919 4.254 11.527 4.664 11.918 5.19 12.312 5.717 12.508 6.304 12.508 6.956 12.508 7.459 12.414 7.911 12.226 8.312 11.942 8.857 11.469 9.43 10.809 10.022 9.961 10.837 8.452 12.179 6.278 14.043 5.242 14.947 4.526 15.59 4.133 15.976 3.243 16.82 2.563 17.579 2.087 18.255 1.614 18.926 1.272 19.597 1.065 20.263 .857 20.929 .755 21.642 .755 22.397 .755 23.79 1.144 25.099 1.922 26.32 2.698 27.541 3.86 28.496 5.409 29.185 6.956 29.875 8.908 30.22 11.264 30.22 13.381 30.22 15.767 29.959 18.418 29.442 18.492 27.899 18.639 26.138 18.863 24.153 16.557 25.043 14.427 25.486 12.475 25.486 11.026 25.486 9.84 25.155 8.918 24.498 7.993 23.837 7.532 23.072 7.532 22.197 7.532 21.959 7.562 21.712 7.627 21.451 7.692 21.195 7.788 20.943 7.918 20.696 8.046 20.454 8.275 20.133 8.606 19.741 8.936 19.35 9.419 18.888 10.055 18.367 10.691 17.84 11.236 17.411 11.685 17.085L14.427 14.597C15.121 14.02 15.743 13.456 16.291 12.911 16.838 12.361 17.307 11.834 17.698 11.331 18.089 10.828 18.397 10.348 18.618 9.887 18.842 9.43 19.007 8.96 19.119 8.48 19.229 7.995 19.285 7.487 19.285 6.956 19.285 5.712 18.996 4.538 18.418 3.434 17.84 2.33 17.011 1.421 15.93 .713 14.849 0 13.663-.489 12.375-.764 11.087-1.039 9.724-1.174 8.286-1.174 7.338-1.174 6.234-1.095 4.976-.932 3.716-.769 2.057-.457 0 0" fill="#fed328"/>
<path transform="matrix(1,0,0,-1,490.0606,703.7427)" d="M0 0C.354 5.097 .643 10.32 .864 15.674 1.086 21.032 1.195 25.123 1.195 27.951L1.174 30.327 4.888 30.285C5.095 30.285 6.227 30.299 8.289 30.327 7.683 22.537 7.301 12.426 7.138 0L3.869 .047C3.322 .047 2.031 .028 0 0" fill="#fed328"/>
<path transform="matrix(1,0,0,-1,502.6172,703.09976)" d="M0 0C-.119 2.25-.275 4.091-.468 5.512 2.434 4.193 5.072 3.536 7.443 3.536 8.389 3.536 9.274 3.681 10.096 3.97 10.919 4.254 11.527 4.664 11.918 5.19 12.312 5.717 12.508 6.304 12.508 6.956 12.508 7.459 12.414 7.911 12.226 8.312 11.942 8.857 11.469 9.43 10.809 10.022 9.961 10.837 8.452 12.179 6.278 14.043 5.242 14.947 4.526 15.59 4.133 15.976 3.243 16.82 2.563 17.579 2.087 18.255 1.614 18.926 1.272 19.597 1.065 20.263 .857 20.929 .755 21.642 .755 22.397 .755 23.79 1.144 25.099 1.922 26.32 2.698 27.541 3.86 28.496 5.409 29.185 6.956 29.875 8.908 30.22 11.264 30.22 13.381 30.22 15.767 29.959 18.418 29.442 18.492 27.899 18.639 26.138 18.863 24.153 16.557 25.043 14.427 25.486 12.475 25.486 11.026 25.486 9.84 25.155 8.918 24.498 7.993 23.837 7.532 23.072 7.532 22.197 7.532 21.959 7.562 21.712 7.627 21.451 7.692 21.195 7.788 20.943 7.918 20.696 8.046 20.454 8.275 20.133 8.606 19.741 8.936 19.35 9.419 18.888 10.055 18.367 10.691 17.84 11.236 17.411 11.685 17.085L14.427 14.597C15.122 14.02 15.744 13.456 16.291 12.911 16.838 12.361 17.307 11.834 17.698 11.331 18.089 10.828 18.397 10.348 18.618 9.887 18.842 9.43 19.007 8.96 19.119 8.48 19.229 7.995 19.284 7.487 19.284 6.956 19.284 5.712 18.996 4.538 18.418 3.434 17.84 2.33 17.011 1.421 15.93 .713 14.849 0 13.663-.489 12.375-.764 11.087-1.039 9.724-1.174 8.286-1.174 7.338-1.174 6.234-1.095 4.976-.932 3.716-.769 2.057-.457 0 0" fill="#fed328"/>
<path transform="matrix(1,0,0,-1,533.1887,703.7427)" d="M0 0 .487 6.486 .974 16.154 1.284 25.663H-.27L-1.712 25.64-3.087 25.616-8.212 25.463C-8.093 27.597-8.028 29.218-8.012 30.327-3.748 30.299 .715 30.285 5.381 30.285L13.358 30.304 17.617 30.327C17.467 28.221 17.393 26.599 17.393 25.463 14.719 25.598 12.147 25.663 9.687 25.663H7.972L7.711 21.605 7.077 5.987 7.031 3.373C7.012 2.292 7.003 1.169 7.003 0L3.625 .047C3.254 .047 2.045 .028 0 0" fill="#fed328"/>
<path transform="matrix(1,0,0,-1,552.9205,703.7427)" d="M0 0 .643 8.508 1.109 18.353 1.398 27.308V30.327C5.055 30.299 8.871 30.285 12.841 30.285L17.109 30.304 23.529 30.327 23.263 25.528 21.153 25.64C20.575 25.668 19.774 25.691 18.753 25.705 17.728 25.719 16.685 25.728 15.618 25.728 13.307 25.728 11.816 25.724 11.14 25.719 10.469 25.71 9.449 25.686 8.088 25.64L7.725 17.752C9.756 17.71 11.802 17.686 13.861 17.686 15.282 17.686 17.682 17.728 21.064 17.817 20.943 16.47 20.841 14.858 20.752 12.976 16.797 13.018 14.532 13.041 13.954 13.041 12.207 13.041 10.031 12.999 7.422 12.911L7.063 4.599 9.505 4.575C10.218 4.575 11.848 4.589 14.397 4.622L19.219 4.71 22.439 4.864C22.29 3.15 22.187 1.524 22.131 0 18.278 .028 14.802 .047 11.709 .047L4.398 .023Z" fill="#fed328"/>
<path transform="matrix(1,0,0,-1,580.1769,703.7427)" d="M0 0 .582 5.023 2.055 22.662 2.567 30.327C4.682 30.299 6.225 30.285 7.203 30.285 7.986 30.285 9.416 30.299 11.485 30.327 11.723 29.129 11.9 28.277 12.021 27.774 12.137 27.27 12.37 26.464 12.71 25.351 13.05 24.242 13.488 22.891 14.024 21.307 14.812 18.907 15.515 16.536 16.14 14.197L17.831 7.841 20.803 15.995 25.127 26.595C25.276 26.949 25.43 27.364 25.584 27.83 25.738 28.295 25.998 29.129 26.371 30.327 28.132 30.299 29.703 30.285 31.082 30.285 32.004 30.285 33.467 30.299 35.485 30.327 35.28 26.064 35.121 21.349 35.019 16.186 34.916 11.024 34.865 7.171 34.865 4.622 34.865 3.392 34.879 1.85 34.907 0 33.444 .028 32.442 .047 31.911 .047 31.138 .047 30.117 .028 28.841 0 28.929 1.51 28.99 2.754 29.018 3.732L29.39 16.955C29.437 18.819 29.46 20.654 29.46 22.462L29.437 24.261 21.269 2.642 20.319 0C18.875 .028 17.887 .047 17.351 .047 16.68 .047 15.632 .028 14.201 0L10.381 13.689C10.246 14.173 9.933 15.198 9.444 16.755L8.07 21.283C7.935 21.717 7.837 22.066 7.767 22.341 7.702 22.616 7.557 23.226 7.334 24.172L7.045 21.33C6.97 20.426 6.858 18.916 6.709 16.796L5.843 3.024C5.815 2.339 5.791 1.333 5.777 0L2.912 .047C2.423 .047 1.454 .028 0 0" fill="#fed328"/>
<path transform="matrix(1,0,0,-1,631.5449,688.344)" d="M0 0H8.512L5.018 10.283 3.219 6.542ZM-14.504-15.399C-12.967-12.673-11.159-9.304-9.081-5.288L-3.234 5.931C-1.412 9.398 .098 12.398 1.3 14.928 3.224 14.9 4.589 14.886 5.386 14.886 6.793 14.886 8.172 14.9 9.519 14.928L12.696 5.843 19.601-12.953 20.556-15.399 17.225-15.352C16.456-15.352 15.161-15.371 13.344-15.399 12.985-14.08 12.426-12.305 11.662-10.069 10.898-7.832 10.25-6.015 9.714-4.622H-1.976C-3.709-8.149-5.395-11.741-7.04-15.399L-10.66-15.352C-11.345-15.352-12.627-15.371-14.504-15.399" fill="#fed328"/>
<path transform="matrix(1,0,0,-1,654.5474,703.09976)" d="M0 0C-.121 2.25-.275 4.091-.466 5.512 2.437 4.193 5.074 3.536 7.441 3.536 8.391 3.536 9.276 3.681 10.097 3.97 10.921 4.254 11.527 4.664 11.918 5.19 12.31 5.717 12.51 6.304 12.51 6.956 12.51 7.459 12.412 7.911 12.226 8.312 11.942 8.857 11.471 9.43 10.809 10.022 9.961 10.837 8.452 12.179 6.276 14.043 5.242 14.947 4.524 15.59 4.133 15.976 3.243 16.82 2.563 17.579 2.087 18.255 1.612 18.926 1.272 19.597 1.067 20.263 .857 20.929 .755 21.642 .755 22.397 .755 23.79 1.142 25.099 1.92 26.32 2.698 27.541 3.862 28.496 5.409 29.185 6.956 29.875 8.908 30.22 11.266 30.22 13.381 30.22 15.767 29.959 18.418 29.442 18.492 27.899 18.642 26.138 18.861 24.153 16.554 25.043 14.43 25.486 12.477 25.486 11.028 25.486 9.84 25.155 8.918 24.498 7.991 23.837 7.529 23.072 7.529 22.197 7.529 21.959 7.562 21.712 7.627 21.451 7.692 21.195 7.79 20.943 7.916 20.696 8.047 20.454 8.275 20.133 8.606 19.741 8.936 19.35 9.421 18.888 10.055 18.367 10.693 17.84 11.233 17.411 11.685 17.085L14.43 14.597C15.124 14.02 15.744 13.456 16.289 12.911 16.838 12.361 17.309 11.834 17.7 11.331 18.092 10.828 18.399 10.348 18.618 9.887 18.842 9.43 19.005 8.96 19.117 8.48 19.229 7.995 19.285 7.487 19.285 6.956 19.285 5.712 18.996 4.538 18.418 3.434 17.84 2.33 17.011 1.421 15.93 .713 14.849 0 13.666-.489 12.375-.764 11.084-1.039 9.724-1.174 8.289-1.174 7.338-1.174 6.234-1.095 4.976-.932 3.718-.769 2.059-.457 0 0" fill="#fed328"/>
<path transform="matrix(1,0,0,-1,689.5615,703.7427)" d="M0 0C.042 .564 .065 1.016 .065 1.356L.196 4.599C2.05 6.257 3.741 7.86 5.274 9.402 6.807 10.949 8.373 12.608 9.975 14.378 11.574 16.144 12.78 17.57 13.596 18.651 14.262 19.522 14.705 20.174 14.928 20.612 15.152 21.05 15.301 21.418 15.371 21.721 15.445 22.024 15.483 22.332 15.483 22.644 15.483 23.459 15.24 24.121 14.751 24.629 14.262 25.141 13.591 25.542 12.738 25.831 11.89 26.12 10.898 26.264 9.775 26.264 8.736 26.264 7.613 26.171 6.397 25.989 5.181 25.807 3.62 25.477 1.71 24.997L2.129 27.238C2.218 27.774 2.353 28.668 2.53 29.926 5.955 30.551 9.239 30.863 12.394 30.863 13.833 30.863 15.217 30.723 16.55 30.448 17.882 30.178 19.07 29.707 20.119 29.05 21.162 28.393 21.922 27.629 22.406 26.763 22.886 25.896 23.128 24.987 23.128 24.042 23.128 23.478 23.073 22.919 22.961 22.364 22.849 21.805 22.69 21.302 22.481 20.841 22.085 19.923 21.577 18.996 20.962 18.064 20.347 17.132 19.382 15.888 18.073 14.332 16.759 12.776 15.329 11.182 13.782 9.556 12.235 7.925 10.511 6.215 8.615 4.422H10.637L15.594 4.445C17.239 4.445 18.446 4.464 19.215 4.501 19.988 4.538 20.911 4.608 21.996 4.71 21.964 4.249 21.917 3.653 21.852 2.921 21.782 2.19 21.707 1.216 21.614 0 18.255 .028 14.76 .047 11.131 .047 6.686 .047 2.977 .028 0 0" fill="#fed328"/>
<path transform="matrix(1,0,0,-1,717.5075,703.7427)" d="M0 0C.061 1.067 .144 3.056 .247 5.978L3.625 5.931C3.918 5.931 4.892 5.945 6.532 5.978 6.462 4.897 6.402 3.807 6.355 2.712L6.225 0 3.313 .047C3.196 .047 2.092 .028 0 0" fill="#fed328"/>
<path transform="matrix(1,0,0,-1,741.5211,677.4787)" d="M0 0C-.564 0-1.118-.112-1.659-.335-2.199-.559-2.726-.927-3.238-1.435-3.751-1.948-4.175-2.544-4.51-3.229-4.841-3.909-5.148-4.734-5.423-5.708-5.694-6.677-5.913-7.837-6.066-9.179-6.225-10.516-6.299-11.886-6.299-13.279-6.299-15.296-6.099-16.936-5.689-18.208-5.279-19.476-4.673-20.454-3.862-21.153-3.056-21.852-2.125-22.197-1.067-22.197-.489-22.197 .075-22.085 .624-21.852 1.169-21.623 1.733-21.19 2.302-20.552 2.875-19.914 3.387-18.986 3.839-17.761 4.291-16.54 4.622-15.198 4.832-13.735 5.037-12.277 5.144-10.795 5.144-9.3 5.144-7.236 4.943-5.54 4.552-4.207 4.161-2.87 3.569-1.836 2.782-1.104 1.994-.368 1.067 0 0 0M.163 4.599C2.507 4.599 4.51 4.095 6.173 3.084 7.841 2.078 9.132 .471 10.05-1.733 10.972-3.942 11.429-6.518 11.429-9.468 11.429-11.793 11.15-14.113 10.586-16.419 10.022-18.73 9.244-20.626 8.252-22.108 7.259-23.59 5.899-24.74 4.175-25.565 2.451-26.385 .601-26.795-1.37-26.795-3.266-26.795-4.957-26.432-6.444-25.696-7.935-24.964-9.146-23.934-10.078-22.611-11.01-21.283-11.662-19.797-12.035-18.143-12.403-16.494-12.589-14.793-12.589-13.046-12.589-10.628-12.305-8.251-11.746-5.913-11.182-3.574-10.371-1.621-9.309-.056-8.251 1.505-6.877 2.67-5.19 3.443-3.499 4.212-1.715 4.599 .163 4.599" fill="#fed328"/>
<path transform="matrix(1,0,0,-1,374.2827,510.50379)" d="M0 0H80.07C81.77 0 83.148-1.378 83.148-3.078V-27.109C83.148-28.765 81.806-30.108 80.15-30.108H0C-7.793-30.108-12.629-31.443-14.516-34.112-17.22-38.164-18.574-42.124-18.574-46-18.574-52.724-15.622-57.243-9.717-59.573L-4.429-60.607H34.071C57.357-60.607 72.57-69.954 79.705-88.646 81.59-94.592 82.533-100.448 82.533-106.221 82.533-124.825 74.662-138.267 58.918-146.537 52.521-149.636 46.534-151.187 40.959-151.187H-41.338C-43.286-151.187-44.26-148.832-42.883-147.456L-21.52-126.114C-18.293-122.89-13.917-121.079-9.356-121.079H39.359C46.003-121.079 50.511-118.107 52.889-112.161L53.875-105.83C53.875-95.668 48.011-90.585 36.284-90.585H-5.291C-16.198-90.585-26.283-86.191-35.548-77.404-43.34-68.789-47.233-58.194-47.233-45.614-47.233-34.243-43.464-23.69-35.918-13.954-28.456-4.652-16.482 0 0 0" fill="#fed328"/>
<path transform="matrix(1,0,0,-1,610.5485,510.50624)" d="M0 0H137.552C139.294 0 140.705-1.412 140.705-3.153V-15.142C140.705-19.025 139.215-22.76 136.541-25.577L48.674-118.122C47.617-119.236 48.407-121.075 49.942-121.075H137.444C139.245-121.075 140.705-122.535 140.705-124.336V-148.075C140.705-149.791 139.314-151.182 137.598-151.182H.092C-1.731-151.182-3.209-149.705-3.209-147.882V-141.637C-3.209-133.993-.277-126.639 4.983-121.092L88.662-32.844C89.642-31.811 88.91-30.108 87.486-30.108H-.075C-1.806-30.108-3.209-28.705-3.209-26.974V-3.209C-3.209-1.437-1.772 0 0 0" fill="#fed328"/>
<path transform="matrix(1,0,0,-1,599.2918,590.4617)" d="M0 0-15.539 6.173C-17.217 6.84-17.856 8.883-16.856 10.386L-2.068 32.62C1.25 37.607 3.017 43.464 3.012 49.454L2.988 77.116C2.987 78.686 1.714 79.958 .144 79.958H-27.031C-28.761 79.958-30.163 78.555-30.163 76.826V50.754C-30.163 44.318-32.147 38.038-35.843 32.769-39.372 27.738-45.093 19.926-51.237 19.815L-57.921 20.861C-61.628 21.441-65.46 20.535-68.371 18.17-72.514 14.804-76.556 9.943-79.519 6.98L-81.049 5.45C-86.258 .24-101.097-8.436-100.652 6.275V9.257 137.065C-100.652 138.675-101.958 139.98-103.568 139.98H-133.007C-134.843 139.98-136.33 138.493-136.33 136.657V-68.071C-136.33-69.814-134.917-71.227-133.174-71.227H-103.932C-102.121-71.227-100.652-69.759-100.652-67.948V-22.205C-100.652-21.048-99.715-20.109-98.558-20.107L-33.641-19.983C-31.882-19.979-30.454-21.405-30.454-23.164V-68.389C-30.454-69.956-29.183-71.227-27.616-71.227L.067-71.231C1.693-71.231 3.012-69.913 3.012-68.286V-4.437C3.012-2.481 1.818-.722 0 0" fill="#fed328"/>
</g>
</g>
</svg>
